<?xml version="1.0" encoding="utf-8"?>
<?xml-stylesheet type="text/xsl" href="rss1.xsl"?>
<rss version="2.0" xmlns:atom="http://www.w3.org/2005/Atom" xmlns:content="http://purl.org/rss/1.0/modules/content/" xmlns:dc="http://purl.org/dc/elements/1.1/" xmlns:media="http://search.yahoo.com/mrss/">
<channel>
 <title>Getty</title>
 <link>http://www.gettyimg.com/</link>
 <atom:link href="http://www.gettyimg.com/" rel="self" type="application/rss+xml" />

 
                <item>
                <title><![CDATA[【Cinema Center】WEB-DL - O Invasor 2002 1080p GLBO WEB-DL AAC2.0 H.264-SiGLA]]></title>
                <link><![CDATA[https://sharemania.us/threads/o-invasor-2002-1080p-glbo-web-dl-aac2-0-h-264-sigla.243369/]]></link>
                <description><![CDATA[<article>
<blockquote class="messageText SelectQuoteContainer ugc baseHtml">
<div style="text-align: center"><img src="https://i.ibb.co/r6P6BH3/e-Toltye-Auwv9-SMKd-X9n9-QQvd-R1-G.jpg" class="bbCodeImage LbImage" alt="[​IMG]" data-url="https://i.ibb.co/r6P6BH3/e-Toltye-Auwv9-SMKd-X9n9-QQvd-R1-G.jpg" style=""><br>
<br>
<img src="https://i.ibb.co/7jT8Mkm/O-Invasor-2002-1080p-GLBO-WEB-DL-AAC2-0-H-264-Si-GLA-mkv-thumbs.jpg" class="bbCodeImage LbImage" alt="[​IMG]" data-url="https://i.ibb.co/7jT8Mkm/O-Invasor-2002-1080p-GLBO-WEB-DL-AAC2-0-H-264-Si-GLA-mkv-thumbs.jpg" style="">​</div><br>
<div style="text-align: left">
<div class="bbCodeBlock bbCodeCode">
<div class="type">Code:</div>
<pre>General
Unique ID                      : 215563445879072543236134068087176164141 (0xA22C0270C794A7D351DDA41DAD69F32D)
Complete name                  : G:\Drives compartilhados\FileGuard - BACKUP C.A.A\rls_gringo\O.Invasor.2002.1080p.GLBO.WEB-DL.AAC2.0.H.264-SiGLA.mkv
Format                         : Matroska
Format version                 : Version 4
File size                      : 3.17 GiB
Duration                       : 1 h 34 min
Overall bit rate               : 4 790 kb/s
Frame rate                     : 29.970 FPS
Movie name                     : O Invasor (2002)
Writing application            : mkvmerge v82.0 ('SiGLA') 64-bit
Writing library                : libebml v1.4.5 + libmatroska v1.7.1
IMDB                           : tt0303408
TMDB                           : movie/53960

Video
ID                             : 1
Format                         : AVC
Format/Info                    : Advanced Video Codec
Format profile                 : High@L4
Format settings                : CABAC / 2 Ref Frames
Format settings, CABAC         : Yes
Format settings, Reference fra : 2 frames
Codec ID                       : V_MPEG4/ISO/AVC
Duration                       : 1 h 34 min
Bit rate                       : 4 660 kb/s
Width                          : 1 920 pixels
Height                         : 1 080 pixels
Display aspect ratio           : 16:9
Frame rate mode                : Constant
Frame rate                     : 29.970 (30000/1001) FPS
Color space                    : YUV
Chroma subsampling             : 4:2:0
Bit depth                      : 8 bits
Scan type                      : Progressive
Bits/(Pixel*Frame)             : 0.075
Stream size                    : 3.08 GiB (97%)
Writing library                : x264 core 148
Encoding settings              : cabac=1 / ref=2 / deblock=1:0:0 / analyse=0x3:0x113 / me=hex / subme=4 / psy=1 / psy_rd=1.00:0.00 / mixed_ref=0 / me_range=16 / chroma_me=1 / trellis=1 / 8x8dct=1 / cqm=0 / deadzone=21,11 / fast_pskip=1 / chroma_qp_offset=0 / threads=24 / lookahead_threads=6 / sliced_threads=0 / nr=0 / decimate=1 / interlaced=0 / bluray_compat=0 / constrained_intra=0 / bframes=1 / b_pyramid=0 / b_adapt=1 / b_bias=0 / direct=1 / weightb=1 / open_gop=0 / weightp=1 / keyint=30 / keyint_min=16 / scenecut=0 / intra_refresh=0 / rc=2pass / mbtree=0 / bitrate=4660 / ratetol=1.0 / qcomp=0.60 / qpmin=0 / qpmax=69 / qpstep=4 / cplxblur=20.0 / qblur=0.5 / ip_ratio=1.40 / pb_ratio=1.30 / aq=1:1.00
Language                       : Portuguese (BR)
Default                        : Yes
Forced                         : No

Audio
ID                             : 2
Format                         : AAC LC
Format/Info                    : Advanced Audio Codec Low Complexity
Codec ID                       : A_AAC-2
Duration                       : 1 h 34 min
Bit rate                       : 128 kb/s
Channel(s)                     : 2 channels
Channel layout                 : L R
Sampling rate                  : 44.1 kHz
Frame rate                     : 43.066 FPS (1024 SPF)
Compression mode               : Lossy
Stream size                    : 86.6 MiB (3%)
Title                          : Brazilian
Language                       : Portuguese (BR)
Default                        : Yes
Forced                         : No

Text
ID                             : 3
Format                         : UTF-8
Codec ID                       : S_TEXT/UTF8
Codec ID/Info                  : UTF-8 Plain Text
Duration                       : 1 h 31 min
Bit rate                       : 49 b/s
Frame rate                     : 0.164 FPS
Count of elements              : 902
Stream size                    : 32.9 KiB (0%)
Language                       : English (US)
Default                        : Yes
Forced                         : No


</pre>
</div></div>
<div class="bbCodeBlock bbCodeVfcHH HiddenContent">
<div class="attribution type">Hidden Content:</div>
<blockquote>You must either reply or click 'Like' to see the hidden information contained here.</blockquote>
</div>
<div class="messageTextEndMarker">&nbsp;</div>
</blockquote>
</article>]]></description>
                <author><![CDATA[-C.A.A]]></author>
                </item>

                </channel></rss>